<?xml version="1.0" encoding="UTF-8"?>
<svg id="Layer_2" data-name="Layer 2" xmlns="http://www.w3.org/2000/svg" viewBox="0 0 310.92 112.7">
  <defs>
    <style>
      .cls-1 {
        fill: #d65259;
        stroke-width: 0px;
      }
    </style>
  </defs>
  <g id="Color_Branding" data-name="Color Branding">
    <g>
      <g>
        <path class="cls-1" d="m41.92,56.35c0,.61.61,1.37,1.67,2.28,8.35,7.75,14.89,20.96,20.81,30.68,4.25,6.83,8.66,11.39,15.49,12.15,3.04.3,4.71,2.73,4.71,5.16,0,2.58-1.97,5.01-6.23,5.01-3.34,0-13.82-2.43-22.02-17.32-6.23-11.09-18.99-36.45-29.62-36.76-2.13,0-8.66-.3-12.61-.3-4.25,0-4.86.91-4.86,2.89,0,11.7.46,40.86.46,46.48,0,3.04-2.58,4.56-5.01,4.56s-4.71-1.37-4.71-4.41C.3,77.77.15,32.96.61,16.56,1.06,0,16.25,0,27.95,0c3.34,0,6.68.15,8.96.3,22.18,1.52,31.75,14.43,31.75,27.34s-9.72,26.13-25.37,27.95c-.91,0-1.37.3-1.37.76Zm-6.07-48.3c-2.13-.15-5.47-.3-8.96-.3-11.24,0-16.56,2.13-17.16,10.78-.3,3.8-.15,19.29-.3,28.4,0,2.28,2.28,2.58,14.73,2.58,4.86,0,9.87-.15,12.76-.3,14.13-1.06,22.18-11.39,22.18-21.42s-7.14-18.83-23.24-19.75Z"/>
        <path class="cls-1" d="m205.66,112.7c-15.8,0-24.61-9.11-24.61-13.37,0-2.58,2.28-4.41,4.56-4.41,1.37,0,2.73.61,3.8,1.98,3.34,4.71,8.81,7.59,16.25,7.59,8.66,0,15.19-4.86,15.19-11.39,0-8.05-6.53-11.09-24.15-18.99-8.35-3.65-12.3-10.33-12.3-16.86,0-8.96,7.29-17.47,20.66-17.47s21.11,6.53,21.11,10.63c0,2.43-1.98,4.4-4.41,4.4-1.21,0-2.73-.61-3.95-2.13-2.43-2.89-6.23-5.32-12.76-5.32-7.75,0-12.15,4.56-12.15,9.57,0,3.65,2.43,7.44,7.44,9.87,4.25,1.97,11.24,4.86,15.95,7.29,9.42,4.86,13.52,12,13.52,18.99,0,8.66-7.14,19.59-24.15,19.59Z"/>
        <path class="cls-1" d="m281.15,112.55c-19.29,0-34.33-14.43-34.33-35.85s15.95-36.76,33.87-36.76c20.81,0,29.92,16.25,29.92,24.91,0,5.77-3.49,10.03-11.09,10.18-3.49.15-8.66.15-14.28.15-11.39,0-24.3-.15-27.64-.15-1.52,0-1.82.61-1.82,2.73,0,16.56,10.94,26.73,25.52,26.73,11.09,0,17.32-4.71,22.02-10.03.91-.91,1.97-1.37,3.04-1.37,2.28,0,4.56,1.97,4.56,4.4,0,3.49-10.63,15.04-29.77,15.04Zm-.3-65.01c-14.58,0-23.85,13.06-23.85,18.68,0,1.52,1.37,1.52,18.99,1.52,7.9,0,16.4,0,20.66-.15,3.64-.15,5.01-1.82,5.01-4.25,0-4.4-5.32-15.8-20.81-15.8Z"/>
      </g>
      <path class="cls-1" d="m153.35,47.57c.61,0,1.31.81,1.49,1.72,1.4,5.82,3.09,19.49,2.38,32.83-.73,13.59-13.9,22.48-28.18,22.48s-27.33-9.64-28.03-23.71c-.39-7.8.52-23.51,2.78-31.6.17-.92.88-1.72,1.49-1.72,0,0,.01,0,.02,0,1.13.03,1.82.67,2.64,1.32,5.95,4.72,3.48,3,9.71,7.41,4.43-1.18,7.99-1.77,11.39-1.77,3.59,0,6.99.66,11.03,1.99,2.53-1.78,7.02-4.95,10.63-7.63.85-.63,1.51-1.29,2.64-1.32,0,0,.01,0,.02,0m0-6.9h-.19c-3.21.08-5.3,1.7-6.31,2.47-.09.07-.17.14-.27.2-2.6,1.93-5.59,4.06-7.77,5.61-3.46-.91-6.58-1.32-9.78-1.32s-6.23.38-9.97,1.22c-1.73-1.24-2.07-1.51-3.22-2.44-.75-.61-1.79-1.46-3.62-2.92l-.18-.15c-1.04-.84-3.22-2.59-6.58-2.67h-.09s-.1,0-.1,0c-3.87,0-7.27,2.92-8.2,6.98-2.53,9.26-3.36,25.68-2.96,33.59.43,8.65,4.46,16.51,11.34,22.13,6.42,5.25,14.79,8.14,23.59,8.14s16.93-2.68,23.34-7.55c7.11-5.39,11.28-13.02,11.73-21.47.77-14.43-1.08-28.59-2.53-34.7-.88-4.15-4.31-7.13-8.23-7.13h0Z"/>
    </g>
  </g>
</svg>